<?xml version="1.0" encoding="UTF-8" standalone="no"?>
<!-- Created with Inkscape (http://www.inkscape.org/) -->

<svg
   xmlns:dc="http://purl.org/dc/elements/1.1/"
   xmlns:cc="http://creativecommons.org/ns#"
   xmlns:rdf="http://www.w3.org/1999/02/22-rdf-syntax-ns#"
   xmlns:svg="http://www.w3.org/2000/svg"
   xmlns="http://www.w3.org/2000/svg"
   xmlns:xlink="http://www.w3.org/1999/xlink"
   xmlns:sodipodi="http://sodipodi.sourceforge.net/DTD/sodipodi-0.dtd"
   xmlns:inkscape="http://www.inkscape.org/namespaces/inkscape"
   width="1054.6094"
   height="141.99998"
   viewBox="0 0 279.03206 37.57083"
   version="1.1"
   id="svg948"
   inkscape:version="0.92.4 (5da689c313, 2019-01-14)"
   sodipodi:docname="logo.svg">
  <defs
     id="defs942">
    <linearGradient
       inkscape:collect="always"
       id="linearGradient1602">
      <stop
         style="stop-color:#ff6464;stop-opacity:1"
         offset="0"
         id="stop1598" />
      <stop
         style="stop-color:#c90400;stop-opacity:1"
         offset="1"
         id="stop1600" />
    </linearGradient>
    <linearGradient
       inkscape:collect="always"
       id="linearGradient2383">
      <stop
         style="stop-color:#71bae1;stop-opacity:1"
         offset="0"
         id="stop2379" />
      <stop
         style="stop-color:#3e5bd0;stop-opacity:1"
         offset="1"
         id="stop2381" />
    </linearGradient>
    <linearGradient
       inkscape:collect="always"
       xlink:href="#linearGradient2383"
       id="linearGradient841"
       gradientUnits="userSpaceOnUse"
       gradientTransform="matrix(0.81418878,0.01256239,-0.01256239,0.81418878,-2.836906,263.36033)"
       x1="22.488956"
       y1="3.9687541"
       x2="22.488956"
       y2="41.011364" />
    <radialGradient
       inkscape:collect="always"
       xlink:href="#linearGradient1602"
       id="radialGradient919"
       gradientUnits="userSpaceOnUse"
       cx="71"
       cy="71"
       fx="71"
       fy="71"
       r="59.396481"
       gradientTransform="translate(-5.2944885e-6,-5.480315e-6)" />
    <radialGradient
       inkscape:collect="always"
       xlink:href="#linearGradient1602"
       id="radialGradient979"
       gradientUnits="userSpaceOnUse"
       gradientTransform="matrix(8.4852814e-7,-1.8522808,1.8522808,-8.4852814e-7,-112.72658,118.86291)"
       cx="71"
       cy="71"
       fx="71"
       fy="71"
       r="59.396481" />
    <radialGradient
       inkscape:collect="always"
       xlink:href="#linearGradient1602"
       id="radialGradient851"
       gradientUnits="userSpaceOnUse"
       gradientTransform="translate(-5.2944885e-6,-5.480315e-6)"
       cx="71"
       cy="71"
       fx="71"
       fy="71"
       r="59.396481" />
    <radialGradient
       inkscape:collect="always"
       xlink:href="#linearGradient1602"
       id="radialGradient853"
       gradientUnits="userSpaceOnUse"
       gradientTransform="translate(-5.2944885e-6,-5.480315e-6)"
       cx="71"
       cy="71"
       fx="71"
       fy="71"
       r="59.396481" />
    <radialGradient
       inkscape:collect="always"
       xlink:href="#linearGradient1602"
       id="radialGradient855"
       gradientUnits="userSpaceOnUse"
       gradientTransform="translate(-5.2944885e-6,-5.480315e-6)"
       cx="71"
       cy="71"
       fx="71"
       fy="71"
       r="59.396481" />
  </defs>
  <sodipodi:namedview
     id="base"
     pagecolor="#060606"
     bordercolor="#666666"
     borderopacity="1.0"
     inkscape:pageopacity="0"
     inkscape:pageshadow="2"
     inkscape:zoom="0.70710678"
     inkscape:cx="230.10739"
     inkscape:cy="64.756334"
     inkscape:document-units="px"
     inkscape:current-layer="layer1"
     showgrid="false"
     units="px"
     fit-margin-top="0"
     fit-margin-left="0"
     fit-margin-right="14"
     fit-margin-bottom="0"
     inkscape:pagecheckerboard="false"
     inkscape:window-width="1920"
     inkscape:window-height="1017"
     inkscape:window-x="-8"
     inkscape:window-y="-8"
     inkscape:window-maximized="1"
     inkscape:snap-to-guides="false"
     inkscape:snap-grids="true"
     showguides="false">
    <inkscape:grid
       type="xygrid"
       id="grid1500"
       originx="3.935e-06"
       originy="-5.6389412e-08" />
  </sodipodi:namedview>
  <metadata
     id="metadata945">
    <rdf:RDF>
      <cc:Work
         rdf:about="">
        <dc:format>image/svg+xml</dc:format>
        <dc:type
           rdf:resource="http://purl.org/dc/dcmitype/StillImage" />
        <dc:title />
      </cc:Work>
    </rdf:RDF>
  </metadata>
  <g
     inkscape:groupmode="layer"
     id="layer1"
     inkscape:label="Layer 4"
     style="display:inline;opacity:1"
     transform="translate(3.935e-6)">
    <g
       id="g834">
      <path
         inkscape:connector-curvature="0"
         id="path975"
         transform="scale(0.26458333)"
         d="m 71,11.603516 -4.953125,4.953125 -10.603516,10.603515 -5.65625,5.65625 -1.414062,1.414063 9.896484,9.896484 12.72461,-12.724609 12.730468,12.730468 9.902344,-9.902343 -1.414062,-1.414063 -5.65625,-5.65625 z"
         style="opacity:1;fill:url(#radialGradient851);fill-opacity:1;stroke:none;stroke-width:14;stroke-linejoin:miter;stroke-miterlimit:4;stroke-dasharray:none;stroke-opacity:1;paint-order:stroke fill markers" />
      <path
         inkscape:connector-curvature="0"
         id="path973"
         transform="scale(0.26458333)"
         d="m 34.230469,48.373047 -1.414063,1.414062 -5.65625,5.65625 L 11.603516,71 l 15.55664,15.556641 5.65625,5.65625 1.414063,1.414062 9.896484,-9.896484 L 31.396484,71 44.126953,58.269531 Z"
         style="opacity:1;fill:url(#radialGradient853);fill-opacity:1;stroke:none;stroke-width:14;stroke-linejoin:miter;stroke-miterlimit:4;stroke-dasharray:none;stroke-opacity:1;paint-order:stroke fill markers" />
      <path
         inkscape:connector-curvature="0"
         id="path971"
         transform="scale(0.26458333)"
         d="M 107.76953,48.373047 97.867188,58.275391 110.59375,71 97.867188,83.724609 l 9.902342,9.902344 1.41406,-1.414062 5.65625,-5.65625 L 130.39648,71 l -4.95312,-4.953125 -10.60352,-10.603516 -5.65625,-5.65625 z"
         style="opacity:1;fill:url(#radialGradient855);fill-opacity:1;stroke:none;stroke-width:14;stroke-linejoin:miter;stroke-miterlimit:4;stroke-dasharray:none;stroke-opacity:1;paint-order:stroke fill markers" />
      <path
         inkscape:connector-curvature="0"
         id="path967"
         d="m 13.546931,18.785414 5.238484,5.238484 5.238483,-5.238483 -5.238484,-5.238484 z"
         style="opacity:1;fill:url(#radialGradient979);fill-opacity:1;stroke:none;stroke-width:3.70416641;stroke-linejoin:miter;stroke-miterlimit:4;stroke-dasharray:none;stroke-opacity:1;paint-order:stroke fill markers" />
      <path
         inkscape:connector-curvature="0"
         id="path856"
         transform="scale(0.26458333)"
         d="m 83.724609,97.867188 -12.730468,12.730472 -12.72461,-12.724613 -9.896484,9.896483 1.414062,1.41406 5.65625,5.65625 L 71,130.39648 l 15.556641,-15.55664 5.65625,-5.65625 1.414062,-1.41406 z"
         style="opacity:1;fill:url(#radialGradient919);fill-opacity:1;stroke:none;stroke-width:14;stroke-linejoin:miter;stroke-miterlimit:4;stroke-dasharray:none;stroke-opacity:1;paint-order:stroke fill markers" />
    </g>
    <path
       inkscape:connector-curvature="0"
       id="path835"
       style="font-style:normal;font-variant:normal;font-weight:normal;font-stretch:normal;font-size:26.45833206px;line-height:6.61458302px;font-family:Negatronic;-inkscape-font-specification:Negatronic;font-variant-ligatures:normal;font-variant-caps:normal;font-variant-numeric:normal;text-align:start;letter-spacing:0px;word-spacing:0px;writing-mode:lr-tb;text-anchor:start;fill:#ffffff;fill-opacity:1;stroke:none;stroke-width:0.26458332"
       d="m 48.630416,28.045832 q -2.037291,0 -3.598333,-0.873125 -1.534583,-0.873125 -2.38125,-2.460625 -0.846666,-1.613958 -0.846666,-3.704167 v -4.444999 q 0,-2.090209 0.846666,-3.677709 0.873125,-1.613958 2.434167,-2.487083 1.5875,-0.8731248 3.65125,-0.8731248 h 2.804583 q 1.984375,0 3.4925,0.8466668 1.508125,0.846666 2.328333,2.38125 0.846667,1.508125 0.846667,3.518958 H 54.61 q 0,-1.5875 -0.846667,-2.54 -0.846667,-0.978958 -2.2225,-0.978958 H 48.73625 q -1.481667,0 -2.38125,1.11125 -0.899583,1.084791 -0.899583,2.8575 v 4.127499 q 0,1.772709 0.873125,2.883959 0.873125,1.084791 2.301874,1.084791 h 2.8575 q 1.402292,0 2.275417,-1.084791 0.899583,-1.084792 0.899583,-2.8575 h 3.598333 q 0,2.143125 -0.846666,3.783541 -0.846667,1.613958 -2.38125,2.513542 -1.534583,0.873125 -3.545417,0.873125 z" />
    <path
       inkscape:connector-curvature="0"
       id="path837"
       style="font-style:normal;font-variant:normal;font-weight:normal;font-stretch:normal;font-size:26.45833206px;line-height:6.61458302px;font-family:Negatronic;-inkscape-font-specification:Negatronic;font-variant-ligatures:normal;font-variant-caps:normal;font-variant-numeric:normal;text-align:start;letter-spacing:0px;word-spacing:0px;writing-mode:lr-tb;text-anchor:start;fill:#ffffff;fill-opacity:1;stroke:none;stroke-width:0.26458332"
       d="m 65.100728,28.045832 q -2.407708,0 -3.862916,-1.27 -1.455208,-1.27 -1.455208,-3.122083 h 3.545416 q 0,0.502708 0.47625,0.9525 0.502708,0.423333 1.296458,0.423333 h 2.38125 q 1.5875,0 1.5875,-0.873125 v -0.238125 q 0,-0.264583 -0.264583,-0.47625 -0.264583,-0.238125 -0.714375,-0.3175 l -4.577291,-0.79375 Q 61.872812,22.03979 60.94677,21.166665 60.020729,20.29354 60.020729,19.102915 v -0.687916 q 0,-1.693333 1.375833,-2.645833 1.402292,-0.9525 3.889375,-0.9525 h 2.06375 q 2.2225,0 3.571874,1.190625 1.375834,1.164166 1.375834,2.910416 h -3.545417 q 0,-0.396875 -0.396875,-0.740833 -0.370416,-0.343958 -1.005416,-0.343958 h -2.010834 q -1.719791,0 -1.719791,0.793749 v 0.238125 q 0,0.291042 0.211666,0.502709 0.238125,0.185208 0.661459,0.264583 l 4.815416,0.873125 q 1.508125,0.264583 2.434167,1.137708 0.926041,0.846667 0.926041,1.931459 v 0.740833 q 0,1.719791 -1.42875,2.725208 -1.402291,1.005417 -3.757083,1.005417 z" />
    <path
       inkscape:connector-curvature="0"
       id="path839"
       style="font-style:normal;font-variant:normal;font-weight:normal;font-stretch:normal;font-size:26.45833206px;line-height:6.61458302px;font-family:Negatronic;-inkscape-font-specification:Negatronic;font-variant-ligatures:normal;font-variant-caps:normal;font-variant-numeric:normal;text-align:start;letter-spacing:0px;word-spacing:0px;writing-mode:lr-tb;text-anchor:start;fill:#ffffff;fill-opacity:1;stroke:none;stroke-width:0.26458332"
       d="m 74.938682,9.5249992 h 3.598333 v 6.6410418 q 0.238125,-0.3175 1.42875,-0.926042 0.873125,-0.423333 1.666875,-0.423333 h 1.640416 q 2.116667,0 3.386667,1.322916 1.296458,1.322917 1.296458,3.4925 v 8.41375 h -3.598333 v -8.281458 q 0,-0.820209 -0.449792,-1.322917 -0.423333,-0.502708 -1.11125,-0.502708 H 81.15639 q -0.926042,0 -1.666875,0.687916 -0.714375,0.661459 -0.9525,1.74625 v 7.672917 h -3.598333 z" />
    <path
       inkscape:connector-curvature="0"
       id="path841"
       style="font-style:normal;font-variant:normal;font-weight:normal;font-stretch:normal;font-size:26.45833206px;line-height:6.61458302px;font-family:Negatronic;-inkscape-font-specification:Negatronic;font-variant-ligatures:normal;font-variant-caps:normal;font-variant-numeric:normal;text-align:start;letter-spacing:0px;word-spacing:0px;writing-mode:lr-tb;text-anchor:start;fill:#ffffff;fill-opacity:1;stroke:none;stroke-width:0.26458332"
       d="m 96.622938,28.045832 q -2.328333,0 -3.413125,-1.058334 -1.084791,-1.058333 -1.084791,-3.280833 v -5.794374 h -2.328334 v -3.095625 h 2.434167 v -3.96875 h 3.4925 v 3.96875 h 3.439583 v 3.095625 h -3.439583 v 5.635624 q 0,0.740834 0.264583,1.084792 0.291042,0.343958 0.899583,0.343958 h 2.275417 v 3.069167 z" />
    <path
       inkscape:connector-curvature="0"
       id="path843"
       style="font-style:normal;font-variant:normal;font-weight:normal;font-stretch:normal;font-size:26.45833206px;line-height:6.61458302px;font-family:Negatronic;-inkscape-font-specification:Negatronic;font-variant-ligatures:normal;font-variant-caps:normal;font-variant-numeric:normal;text-align:start;letter-spacing:0px;word-spacing:0px;writing-mode:lr-tb;text-anchor:start;fill:#ffffff;fill-opacity:1;stroke:none;stroke-width:0.26458332"
       d="m 116.70895,14.816666 q 2.01083,0 3.22791,1.322916 1.21709,1.296459 1.21709,3.227917 v 8.678333 h -3.59834 v -8.678333 q 0,-0.740834 -0.34395,-1.164167 -0.34396,-0.449791 -0.89959,-0.449791 h -1.13771 q -0.74083,0 -1.29645,0.555624 -0.55563,0.529167 -0.68792,1.42875 v 8.307917 h -3.59833 v -8.651875 q 0,-0.740833 -0.34396,-1.190625 -0.34396,-0.449791 -0.89959,-0.449791 h -1.03187 q -0.76729,0 -1.34938,0.687916 -0.58208,0.687917 -0.74083,1.799167 v 7.805208 H 101.6277 V 14.816666 h 3.33375 v 1.561041 q 0.34396,-0.502708 1.24354,-1.084791 0.74083,-0.47625 1.50812,-0.47625 h 1.48167 q 0.79375,0 1.71979,0.502708 0.9525,0.502708 1.24354,1.217083 0.4498,-0.608541 1.4023,-1.217083 0.79375,-0.502708 1.69333,-0.502708 z" />
    <path
       inkscape:connector-curvature="0"
       id="path845"
       style="font-style:normal;font-variant:normal;font-weight:normal;font-stretch:normal;font-size:26.45833206px;line-height:6.61458302px;font-family:Negatronic;-inkscape-font-specification:Negatronic;font-variant-ligatures:normal;font-variant-caps:normal;font-variant-numeric:normal;text-align:start;letter-spacing:0px;word-spacing:0px;writing-mode:lr-tb;text-anchor:start;fill:#ffffff;fill-opacity:1;stroke:none;stroke-width:0.26458332"
       d="m 128.68548,28.045832 q -2.3548,0 -3.46605,-0.978959 -1.08479,-1.005416 -1.08479,-3.095624 V 9.5249992 h 3.59834 V 23.759582 q 0,0.635 0.29104,0.926042 0.29104,0.291041 0.92604,0.291041 h 1.42875 v 3.069167 z" />
    <path
       inkscape:connector-curvature="0"
       id="path847"
       style="font-style:normal;font-variant:normal;font-weight:normal;font-stretch:normal;font-size:26.45833206px;line-height:6.61458302px;font-family:Negatronic;-inkscape-font-specification:Negatronic;font-variant-ligatures:normal;font-variant-caps:normal;font-variant-numeric:normal;text-align:start;letter-spacing:0px;word-spacing:0px;writing-mode:lr-tb;text-anchor:start;fill:#ffffff;fill-opacity:1;stroke:none;stroke-width:0.26458332"
       d="m 138.39238,28.045832 q -2.03729,0 -3.59833,-0.873125 -1.53459,-0.873125 -2.38125,-2.460625 -0.84667,-1.613958 -0.84667,-3.704167 v -4.444999 q 0,-2.090209 0.84667,-3.677709 0.87312,-1.613958 2.43416,-2.487083 1.5875,-0.8731248 3.65125,-0.8731248 h 2.80459 q 1.98437,0 3.4925,0.8466668 1.50812,0.846666 2.32833,2.38125 0.84667,1.508125 0.84667,3.518958 h -3.59834 q 0,-1.5875 -0.84666,-2.54 -0.84667,-0.978958 -2.2225,-0.978958 h -2.80459 q -1.48166,0 -2.38125,1.11125 -0.89958,1.084791 -0.89958,2.8575 v 4.127499 q 0,1.772709 0.87312,2.883959 0.87313,1.084791 2.30188,1.084791 h 2.8575 q 1.40229,0 2.27542,-1.084791 0.89958,-1.084792 0.89958,-2.8575 h 3.59833 q 0,2.143125 -0.84666,3.783541 -0.84667,1.613958 -2.38125,2.513542 -1.53459,0.873125 -3.54542,0.873125 z" />
    <path
       inkscape:connector-curvature="0"
       id="path849"
       style="font-style:normal;font-variant:normal;font-weight:normal;font-stretch:normal;font-size:26.45833206px;line-height:6.61458302px;font-family:Negatronic;-inkscape-font-specification:Negatronic;font-variant-ligatures:normal;font-variant-caps:normal;font-variant-numeric:normal;text-align:start;letter-spacing:0px;word-spacing:0px;writing-mode:lr-tb;text-anchor:start;fill:#ffffff;fill-opacity:1;stroke:none;stroke-width:0.26458332"
       d="m 155.28602,28.045832 q -1.66687,0 -2.96333,-0.635 -1.27,-0.661459 -1.98438,-1.852084 -0.68791,-1.190624 -0.68791,-2.751666 v -2.69875 q 0,-1.561042 0.71437,-2.751666 0.71438,-1.217084 1.98438,-1.878542 1.29646,-0.661458 2.96333,-0.661458 h 2.38125 q 1.66688,0 2.93688,0.661458 1.29645,0.661458 2.01083,1.878542 0.71437,1.190624 0.71437,2.751666 v 2.69875 q 0,1.561042 -0.71437,2.751666 -0.71438,1.190625 -2.01083,1.852084 -1.27,0.635 -2.96334,0.635 z m 2.32834,-3.095625 q 0.97895,0 1.56104,-0.661458 0.58208,-0.687917 0.58208,-1.772709 v -2.169583 q 0,-1.084792 -0.58208,-1.74625 -0.58209,-0.687916 -1.53459,-0.687916 h -2.27541 q -0.9525,0 -1.53459,0.687916 -0.58208,0.661458 -0.58208,1.74625 v 2.169583 q 0,1.084792 0.58208,1.772709 0.58209,0.661458 1.50813,0.661458 z" />
    <path
       inkscape:connector-curvature="0"
       id="path851"
       style="font-style:normal;font-variant:normal;font-weight:normal;font-stretch:normal;font-size:26.45833206px;line-height:6.61458302px;font-family:Negatronic;-inkscape-font-specification:Negatronic;font-variant-ligatures:normal;font-variant-caps:normal;font-variant-numeric:normal;text-align:start;letter-spacing:0px;word-spacing:0px;writing-mode:lr-tb;text-anchor:start;fill:#ffffff;fill-opacity:1;stroke:none;stroke-width:0.26458332"
       d="m 180.89107,14.816666 q 2.01084,0 3.22792,1.322916 1.21708,1.296459 1.21708,3.227917 v 8.678333 h -3.59833 v -8.678333 q 0,-0.740834 -0.34396,-1.164167 -0.34396,-0.449791 -0.89958,-0.449791 h -1.13771 q -0.74083,0 -1.29646,0.555624 -0.55562,0.529167 -0.68792,1.42875 v 8.307917 h -3.59833 v -8.651875 q 0,-0.740833 -0.34396,-1.190625 -0.34396,-0.449791 -0.89958,-0.449791 h -1.03188 q -0.76729,0 -1.34937,0.687916 -0.58208,0.687917 -0.74083,1.799167 v 7.805208 h -3.59834 V 14.816666 h 3.33375 v 1.561041 q 0.34396,-0.502708 1.24354,-1.084791 0.74084,-0.47625 1.50813,-0.47625 h 1.48167 q 0.79375,0 1.71979,0.502708 0.9525,0.502708 1.24354,1.217083 0.44979,-0.608541 1.40229,-1.217083 0.79375,-0.502708 1.69333,-0.502708 z" />
    <path
       inkscape:connector-curvature="0"
       id="path853"
       style="font-style:normal;font-variant:normal;font-weight:normal;font-stretch:normal;font-size:26.45833206px;line-height:6.61458302px;font-family:Negatronic;-inkscape-font-specification:Negatronic;font-variant-ligatures:normal;font-variant-caps:normal;font-variant-numeric:normal;text-align:start;letter-spacing:0px;word-spacing:0px;writing-mode:lr-tb;text-anchor:start;fill:#ffffff;fill-opacity:1;stroke:none;stroke-width:0.26458332"
       d="m 188.31676,14.816666 h 3.33375 v 1.455208 q 0.37042,-0.449792 1.42875,-1.005417 0.84667,-0.449791 1.66688,-0.449791 h 1.66687 q 1.5875,0 2.80459,0.661458 1.21708,0.635 1.87854,1.799167 0.66146,1.164166 0.66146,2.672291 v 2.566458 q 0,1.640417 -0.66146,2.910417 -0.66146,1.243541 -1.85208,1.931458 -1.19063,0.687917 -2.75167,0.687917 h -1.71979 q -0.74084,0 -1.53459,-0.343959 -1.16416,-0.555625 -1.32291,-0.714375 v 6.35 h -3.59834 z m 7.69938,10.133541 q 0.97896,0 1.56104,-0.740833 0.58208,-0.740834 0.58208,-1.957917 v -2.037292 q 0,-1.031875 -0.60854,-1.666875 -0.58208,-0.634999 -1.56104,-0.634999 h -1.61396 q -0.76729,0 -1.45521,0.634999 -0.68791,0.608542 -1.00541,1.5875 v 2.2225 q 0.13229,1.164167 0.79375,1.878542 0.68791,0.714375 1.66687,0.714375 z" />
    <path
       inkscape:connector-curvature="0"
       id="path855"
       style="font-style:normal;font-variant:normal;font-weight:normal;font-stretch:normal;font-size:26.45833206px;line-height:6.61458302px;font-family:Negatronic;-inkscape-font-specification:Negatronic;font-variant-ligatures:normal;font-variant-caps:normal;font-variant-numeric:normal;text-align:start;letter-spacing:0px;word-spacing:0px;writing-mode:lr-tb;text-anchor:start;fill:#ffffff;fill-opacity:1;stroke:none;stroke-width:0.26458332"
       d="m 209.39124,28.045832 q -1.66688,0 -2.96333,-0.635 -1.27,-0.661459 -1.98438,-1.852084 -0.68792,-1.190624 -0.68792,-2.751666 v -2.69875 q 0,-1.561042 0.71438,-2.751666 0.71437,-1.217084 1.98437,-1.878542 1.29646,-0.661458 2.96334,-0.661458 h 2.38125 q 1.66687,0 2.93687,0.661458 1.29646,0.661458 2.01084,1.878542 0.71437,1.190624 0.71437,2.751666 v 2.69875 q 0,1.561042 -0.71437,2.751666 -0.71438,1.190625 -2.01084,1.852084 -1.27,0.635 -2.96333,0.635 z m 2.32833,-3.095625 q 0.97896,0 1.56104,-0.661458 0.58209,-0.687917 0.58209,-1.772709 v -2.169583 q 0,-1.084792 -0.58209,-1.74625 -0.58208,-0.687916 -1.53458,-0.687916 h -2.27542 q -0.9525,0 -1.53458,0.687916 -0.58208,0.661458 -0.58208,1.74625 v 2.169583 q 0,1.084792 0.58208,1.772709 0.58208,0.661458 1.50813,0.661458 z" />
    <path
       inkscape:connector-curvature="0"
       id="path857"
       style="font-style:normal;font-variant:normal;font-weight:normal;font-stretch:normal;font-size:26.45833206px;line-height:6.61458302px;font-family:Negatronic;-inkscape-font-specification:Negatronic;font-variant-ligatures:normal;font-variant-caps:normal;font-variant-numeric:normal;text-align:start;letter-spacing:0px;word-spacing:0px;writing-mode:lr-tb;text-anchor:start;fill:#ffffff;fill-opacity:1;stroke:none;stroke-width:0.26458332"
       d="m 219.99442,14.816666 h 3.33375 v 1.613958 q 0.50271,-0.582083 1.50813,-1.137708 0.92604,-0.47625 1.85208,-0.47625 h 1.5875 q 2.16958,0 3.41312,1.322916 1.27,1.322917 1.27,3.307292 v 8.598958 h -3.59833 v -8.466667 q 0,-0.820208 -0.44979,-1.322916 -0.42333,-0.502708 -1.11125,-0.502708 h -1.5875 q -0.92604,0 -1.66687,0.687916 -0.71438,0.661458 -0.9525,1.74625 v 7.858125 h -3.59834 z" />
    <path
       inkscape:connector-curvature="0"
       id="path859"
       style="font-style:normal;font-variant:normal;font-weight:normal;font-stretch:normal;font-size:26.45833206px;line-height:6.61458302px;font-family:Negatronic;-inkscape-font-specification:Negatronic;font-variant-ligatures:normal;font-variant-caps:normal;font-variant-numeric:normal;text-align:start;letter-spacing:0px;word-spacing:0px;writing-mode:lr-tb;text-anchor:start;fill:#ffffff;fill-opacity:1;stroke:none;stroke-width:0.26458332"
       d="m 240.99199,28.045832 q -1.66687,0 -2.96333,-0.608542 -1.27,-0.635 -1.98438,-1.74625 -0.71437,-1.137708 -0.71437,-2.592916 v -3.01625 q 0,-1.561042 0.71437,-2.751667 0.71438,-1.190625 1.98438,-1.852083 1.29646,-0.661458 2.96333,-0.661458 h 2.11667 q 2.54,0 4.07458,1.42875 1.53459,1.42875 1.53459,3.809999 v 2.619375 h -9.78959 v 0.423334 q 0,0.873125 0.55563,1.402291 0.55562,0.529167 1.50812,0.529167 h 2.06375 q 0.92604,0 1.48167,0 0.58208,-0.02646 0.58208,-0.47625 h 3.54542 q 0,1.11125 -0.71438,1.74625 -0.71437,0.635 -2.01083,1.190625 -1.27,0.555625 -2.93687,0.555625 z m 4.18042,-7.963958 v -0.02646 q 0,-1.031875 -0.55563,-1.640416 -0.55562,-0.635 -1.48166,-0.635 h -2.14313 q -0.9525,0 -1.53458,0.608541 -0.58208,0.582084 -0.58208,1.666875 v 0.02646 z" />
    <path
       inkscape:connector-curvature="0"
       id="path861"
       style="font-style:normal;font-variant:normal;font-weight:normal;font-stretch:normal;font-size:26.45833206px;line-height:6.61458302px;font-family:Negatronic;-inkscape-font-specification:Negatronic;font-variant-ligatures:normal;font-variant-caps:normal;font-variant-numeric:normal;text-align:start;letter-spacing:0px;word-spacing:0px;writing-mode:lr-tb;text-anchor:start;fill:#ffffff;fill-opacity:1;stroke:none;stroke-width:0.26458332"
       d="m 251.15531,14.816666 h 3.33375 v 1.613958 q 0.50271,-0.582083 1.50813,-1.137708 0.92604,-0.47625 1.85208,-0.47625 h 1.5875 q 2.16958,0 3.41312,1.322916 1.27,1.322917 1.27,3.307292 v 8.598958 h -3.59833 v -8.466667 q 0,-0.820208 -0.44979,-1.322916 -0.42333,-0.502708 -1.11125,-0.502708 h -1.5875 q -0.92604,0 -1.66688,0.687916 -0.71437,0.661458 -0.9525,1.74625 v 7.858125 h -3.59833 z" />
    <path
       inkscape:connector-curvature="0"
       id="path863"
       style="font-style:normal;font-variant:normal;font-weight:normal;font-stretch:normal;font-size:26.45833206px;line-height:6.61458302px;font-family:Negatronic;-inkscape-font-specification:Negatronic;font-variant-ligatures:normal;font-variant-caps:normal;font-variant-numeric:normal;text-align:start;letter-spacing:0px;word-spacing:0px;writing-mode:lr-tb;text-anchor:start;fill:#ffffff;fill-opacity:1;stroke:none;stroke-width:0.26458332"
       d="m 272.78788,28.045832 q -2.32833,0 -3.41312,-1.058334 -1.08479,-1.058333 -1.08479,-3.280833 v -5.794374 h -2.32834 v -3.095625 h 2.43417 v -3.96875 h 3.4925 v 3.96875 h 3.43958 v 3.095625 h -3.43958 v 5.635624 q 0,0.740834 0.26458,1.084792 0.29104,0.343958 0.89959,0.343958 h 2.27541 v 3.069167 z" />
  </g>
  <g
     inkscape:groupmode="layer"
     id="layer2"
     inkscape:label="Layer 5"
     style="opacity:0.2"
     transform="translate(3.935e-6)" />
  <g
     inkscape:groupmode="layer"
     id="layer3"
     inkscape:label="Layer 6"
     transform="translate(3.935e-6)" />
</svg>
