<?xml version="1.0" standalone="no"?>
<!DOCTYPE svg PUBLIC "-//W3C//DTD SVG 20010904//EN"
 "http://www.w3.org/TR/2001/REC-SVG-20010904/DTD/svg10.dtd">
<svg version="1.0" xmlns="http://www.w3.org/2000/svg"
 width="700.000000pt" height="700.000000pt" viewBox="0 0 700.000000 700.000000"
 preserveAspectRatio="xMidYMid meet">
<metadata>
Created by potrace 1.11, written by Peter Selinger 2001-2013
</metadata>
<g transform="translate(0.000000,700.000000) scale(0.100000,-0.100000)"
fill="#000000" stroke="none">
<path d="M2947 5876 c-301 -303 -551 -554 -554 -559 -7 -8 468 -488 480 -484
5 1 148 142 318 312 l309 309 269 -270 c148 -148 290 -289 315 -313 l46 -45
240 240 c132 131 240 242 240 245 0 6 -1110 1120 -1114 1118 0 -1 -248 -249
-549 -553z"/>
<path d="M1127 4055 l-554 -555 553 -552 c305 -304 557 -555 559 -557 5 -5
485 470 485 480 0 3 -140 146 -312 317 l-312 312 310 310 c170 171 311 313
314 316 5 5 -471 484 -482 484 -3 0 -256 -250 -561 -555z"/>
<path d="M5065 4370 l-239 -239 24 -27 c14 -14 155 -156 314 -315 l289 -289
-299 -298 c-165 -164 -305 -306 -313 -316 -12 -15 10 -41 225 -256 131 -132
242 -240 245 -240 3 0 256 250 561 555 l555 555 -555 555 c-305 305 -557 555
-561 555 -3 0 -114 -108 -246 -240z"/>
<path d="M3010 3985 l-485 -485 488 -487 487 -488 485 485 c267 267 484 488
483 492 -4 11 -961 968 -968 968 -3 0 -223 -218 -490 -485z"/>
<path d="M2629 1934 c-131 -131 -238 -242 -236 -247 1 -5 251 -257 555 -561
l552 -553 552 553 c304 304 554 556 555 561 2 5 -105 116 -237 247 l-239 240
-22 -20 c-12 -10 -154 -151 -316 -312 l-294 -294 -300 300 c-165 166 -307 306
-315 313 -12 10 -54 -27 -255 -227z"/>
</g>
</svg>
